PathFileType	4	(X/Y/Z)	Patient4_TMGait_0pt4_02_right_17.trc.trc
DataRate	CameraRate	NumFrames	NumMarkers	Units	OrigDataRate	OrigDataStartFrame	OrigNumFrames
70.707070707071	70.707070707071	4	33	mm	70.707070707071	71	       141
Frame#	Time	Sacral			L.Shoulder			Chest			R.Shoulder			Neck			R.ASIS			L.ASIS			R.Thigh.Superior			R.Thigh.Lateral			R.Thigh.Inferior			R.Patella			L.Thigh.Superior			L.Thigh.Lateral			L.Thigh.Inferior			L.Patella			L.Shank.Superior			L.Shank.Lateral			L.Shank.Inferior			R.Shank.Superior			R.Shank.Lateral			R.Shank.Inferior			R.Heel			R.Midfoot.Superior			R.Midfoot.Lateral			R.Toe			L.Heel			L.Midfoot.Lateral			L.Midfoot.Superior			L.Toe			L.Elbow			L.Wrist			R.Elbow			R.Wrist			
		X1	Y1	Z1	X2	Y2	Z2	X3	Y3	Z3	X4	Y4	Z4	X5	Y5	Z5	X6	Y6	Z6	X7	Y7	Z7	X8	Y8	Z8	X9	Y9	Z9	X10	Y10	Z10	X11	Y11	Z11	X12	Y12	Z12	X13	Y13	Z13	X14	Y14	Z14	X15	Y15	Z15	X16	Y16	Z16	X17	Y17	Z17	X18	Y18	Z18	X19	Y19	Z19	X20	Y20	Z20	X21	Y21	Z21	X22	Y22	Z22	X23	Y23	Z23	X24	Y24	Z24	X25	Y25	Z25	X26	Y26	Z26	X27	Y27	Z27	X28	Y28	Z28	X29	Y29	Z29	X30	Y30	Z30	X31	Y31	Z31	X32	Y32	Z32	X33	Y33	Z33	

71	23.000000000000	882.213822668622	1005.012662055100	510.473091921568	1042.689103426356	1428.209683426433	302.745709553709	1167.242083240648	1359.184991995563	447.392093168626	1111.932170161434	1436.235495625607	630.681727840860	1056.885463621288	1492.516364490479	457.604286228622	1120.821700251215	937.630861655596	598.427716817017	1075.167340315673	958.523388810077	327.192860092877	1129.538217319202	728.047384048866	569.572415049067	1038.709730742976	627.752438529553	638.691213466728	1098.885972882127	566.816951220505	554.175444813139	1085.621253127118	479.690972698443	560.858440793825	1148.369310195731	770.042522639081	351.807267952795	1091.359745437513	641.178304464271	280.513875951946	1195.310843504614	580.380038399124	338.142141906599	1219.646736617593	517.468402500260	336.049335882375	1203.806935775763	446.419715703663	326.731740884835	1137.817545953822	316.296951271830	277.481594143830	1226.499057969392	217.702642411807	330.549119139282	1047.414623783753	393.936354185361	569.620342398920	968.405211182056	300.142973039984	638.574814595383	990.476971788667	201.184250939966	571.610051111802	837.896995966280	44.507678809138	552.727722085877	1011.637913282067	96.349409103462	576.943576922223	925.515314138431	37.466248209035	621.817968945222	1132.977964616536	40.489530377706	597.641412991497	1142.763557894875	44.211129798399	372.259537554338	1216.820092554856	43.252793126589	292.636652338493	1291.051020859040	116.729347296979	312.250200150888	1422.813608781336	80.044534425434	287.677279831706	945.518858666309	1085.591706486004	201.211337100292	991.510204062349	828.055124652473	172.097791728159	1232.162597753074	1111.105206148737	738.179224449605	1456.015763967265	1080.092757873197	621.064719850194	
72	23.014142857143	883.191388514063	1003.524393055218	507.272062608680	1041.624451930380	1427.167095811389	299.598869012087	1166.140854898301	1359.168514076250	444.754645517805	1109.685609741628	1435.962350061783	627.810598145881	1054.875711239564	1491.791949226518	454.476361254678	1121.814081968508	937.244308844244	596.390476061744	1077.091559393453	957.472235411270	325.017398598067	1129.952024275996	727.205809691681	567.973838247628	1038.112860195583	627.263775326077	636.966995327829	1098.151337025174	565.756397174779	552.937631523672	1084.204489084412	478.246201691530	559.504891226540	1150.754537165637	768.232853192019	349.784203002843	1091.501206293490	638.810845117612	280.729357077167	1195.680003865136	578.278035809015	337.798888597479	1218.629831173018	514.257121499625	336.817773796373	1201.876912047419	442.731510126386	327.903068899832	1133.202743049412	313.744692500228	279.547958820942	1219.537344859191	213.672559607428	333.254007192446	1045.056285832105	392.972857266513	568.463657155440	965.098276715150	300.072893754912	637.762495052176	985.995669818523	200.726859680588	571.112180792204	832.218891705335	44.625792913966	552.795134908097	1006.018145006590	96.344951461122	576.887957103658	919.882921984762	37.413894063165	621.818826313655	1127.384047915786	40.407981673326	597.715563374236	1131.642032662764	43.009489943785	375.409934793652	1205.250331525007	41.052011847320	295.327712864416	1281.677528272867	111.773755920618	315.664760156387	1412.415414857738	71.583714213950	289.863791068176	947.196522277057	1083.842014227837	197.876076204517	995.025942848457	826.663162022734	168.794503873653	1229.820565298980	1110.277050092261	734.779293605624	1452.685173038353	1075.640031919261	616.332372288716	
73	23.028285714286	884.229916904929	1002.167839210450	503.883859808114	1040.640332607769	1426.167782950000	296.176459400535	1165.123066894970	1359.231182794324	441.854057270589	1107.534496684693	1435.806261725658	624.672817638063	1052.953978939524	1491.144238037043	451.049198680270	1122.872831125196	936.916366959009	594.096456951310	1079.072115200262	956.557462224110	322.631152185753	1130.484091027576	726.394304594875	566.227676624633	1037.619642686235	626.825891563396	635.074467892354	1097.568545944982	564.734460532087	551.535903872992	1083.041017057330	476.765324523188	558.074894427110	1153.253319123251	766.616370614535	347.804533371515	1092.018416917669	636.795658779964	280.754140319895	1196.229473548371	576.471735194430	337.634323054745	1217.672813682585	511.275908830473	337.747704562552	1200.091859577042	439.283500041078	328.994025684184	1128.877692002915	311.460059879396	281.198258392718	1212.696469909566	209.888062131944	335.757328502177	1042.834220370792	392.041756214268	567.237779077951	961.855153514744	300.114330440954	636.887353237061	981.592967613704	200.344623137369	570.617414334760	826.542960204441	44.873280730721	552.904638967368	1000.476251181439	96.329311237322	576.845301862284	914.284296874377	37.389568783656	621.847583621771	1121.836429978319	40.307039644285	597.785082176370	1120.552715268905	41.828960160857	377.990749750534	1193.831848498451	39.185521325042	297.532402860776	1272.254739147443	107.295133336886	318.850481380500	1402.119412674594	63.923031146740	291.910523105543	949.010809724680	1082.114005858593	194.296273330045	998.965620613850	825.369077075840	165.180686415894	1226.673968566640	1109.428859160762	731.871054074651	1448.500712574556	1070.335841403556	612.443056120288	
74	23.042428571429	885.278698631060	1001.017338718181	500.352475846105	1039.767490428487	1425.265320766848	292.497082954030	1164.212554811043	1359.390716626404	438.698283692298	1105.538842585731	1435.812977024949	621.273354023553	1051.171388808244	1490.621975666654	447.334543182504	1123.931396066501	936.689564231893	591.543576474057	1081.019049407163	955.834225153456	320.029513589514	1131.134024313559	725.664662541459	564.316495653151	1037.312783324310	626.451224640168	633.006540406514	1097.247956031268	563.795597051195	549.943620725525	1082.297360063803	475.255127590558	556.595149576363	1155.722976506844	765.268273183641	345.889572923442	1092.857192233411	635.241739139048	280.483649927489	1196.877066495747	575.033585685344	337.539419135597	1216.748612490839	508.683404928559	338.679339708794	1198.491200474470	436.261752400439	329.858295167650	1125.078842439071	309.548375565651	282.257142643610	1206.338718896290	206.589056220602	337.890288342594	1040.872993934023	391.158055826403	565.957784415514	958.759644415461	300.325978129981	635.947953154236	977.348316471082	200.083766215934	570.141510317642	820.891717251590	45.373496785256	553.064012830051	995.063658341367	96.309834630421	576.830027950338	908.732067589455	37.452128386701	621.911324499685	1116.335430092453	40.173242220033	597.848009429850	1110.127698247527	40.753318707716	379.909844280793	1183.206794223670	37.733577630079	299.174794467108	1263.282170819298	103.574680909550	321.606239209080	1392.474842639359	57.553868401534	293.707906487277	950.975980276791	1080.470106888675	190.486998242875	1003.298229013820	824.229710258059	161.291654747379	1222.746392618539	1108.594454570676	729.410224319468	1443.457472811786	1064.120607469119	609.449207093492	
